<svg width="16" height="15" viewBox="0 0 16 15" fill="none" xmlns="http://www.w3.org/2000/svg">
<path fill-rule="evenodd" clip-rule="evenodd" d="M0.0855103 13.7885C0.0855103 13.3742 0.421297 13.0385 0.83551 13.0385H14.3355C14.7497 13.0385 15.0855 13.3742 15.0855 13.7885C15.0855 14.2027 14.7497 14.5385 14.3355 14.5385H0.83551C0.421297 14.5385 0.0855103 14.2027 0.0855103 13.7885Z" fill="white"/>
<path fill-rule="evenodd" clip-rule="evenodd" d="M0.0855103 7.40541C0.0855103 6.9912 0.421297 6.65541 0.83551 6.65541H14.3355C14.7497 6.65541 15.0855 6.9912 15.0855 7.40541C15.0855 7.81962 14.7497 8.15541 14.3355 8.15541H0.83551C0.421297 8.15541 0.0855103 7.81962 0.0855103 7.40541Z" fill="white"/>
<path fill-rule="evenodd" clip-rule="evenodd" d="M0.0855103 1.60095C0.0855103 1.18674 0.421297 0.850952 0.83551 0.850952H14.3355C14.7497 0.850952 15.0855 1.18674 15.0855 1.60095C15.0855 2.01517 14.7497 2.35095 14.3355 2.35095H0.83551C0.421297 2.35095 0.0855103 2.01517 0.0855103 1.60095Z" fill="white"/>
</svg>
