<svg width="15" height="15" viewBox="0 0 15 15" fill="none" xmlns="http://www.w3.org/2000/svg">
<path fill-rule="evenodd" clip-rule="evenodd" d="M14.2336 1.54135C14.452 1.32622 14.452 0.977428 14.2336 0.762299C14.0153 0.54717 13.6613 0.54717 13.4429 0.762299L7.72178 6.39911L2.00067 0.76233C1.78232 0.547201 1.42831 0.547201 1.20996 0.76233C0.99161 0.977459 0.99161 1.32625 1.20996 1.54138L6.93107 7.17816L0.814884 13.2042C0.596536 13.4193 0.596536 13.7681 0.814884 13.9832C1.03323 14.1984 1.38724 14.1984 1.60559 13.9832L7.72178 7.95722L13.838 13.9833C14.0563 14.1984 14.4104 14.1984 14.6287 13.9833C14.8471 13.7681 14.8471 13.4194 14.6287 13.2042L8.51249 7.17816L14.2336 1.54135Z" fill="white"/>
</svg>
