<svg width="36" height="29" viewBox="0 0 36 29" fill="none" xmlns="http://www.w3.org/2000/svg">
<path d="M35.4911 3.64564C34.2034 4.21731 32.8195 4.60231 31.367 4.77585C32.8501 3.88773 33.9891 2.48043 34.5243 0.803351C33.1374 1.62585 31.6003 2.22377 29.9641 2.54606C28.6559 1.15043 26.7878 0.278351 24.7228 0.278351C20.0868 0.278351 16.6801 4.60377 17.7272 9.09398C11.7612 8.79502 6.47032 5.93668 2.92803 1.59231C1.04677 4.8196 1.9524 9.04148 5.14907 11.1794C3.97365 11.1415 2.86532 10.8192 1.89844 10.2811C1.81969 13.6075 4.20407 16.7196 7.6574 17.4123C6.64678 17.6865 5.5399 17.7506 4.41407 17.5348C5.32698 20.3873 7.97823 22.4625 11.1224 22.5209C8.10365 24.8877 4.30032 25.945 0.49115 25.4959C3.66886 27.5331 7.44448 28.7217 11.4986 28.7217C24.8307 28.7217 32.363 17.4619 31.908 7.36293C33.3109 6.34939 34.5287 5.08502 35.4911 3.64564Z" fill="white"/>
</svg>
