<svg width="34" height="32" viewBox="0 0 34 32" fill="none" xmlns="http://www.w3.org/2000/svg">
<path fill-rule="evenodd" clip-rule="evenodd" d="M17.156 0C8.15596 0 0.855957 7.3 0.855957 16.3C0.855957 23.5 5.55596 29.6 11.956 31.8C12.756 31.9 13.056 31.4 13.056 31C13.056 30.6 13.056 29.6 13.056 28.2C8.55596 29.2 7.55596 26 7.55596 26C6.85596 24.1 5.75596 23.6 5.75596 23.6C4.25596 22.6 5.85596 22.6 5.85596 22.6C7.45596 22.7 8.35596 24.3 8.35596 24.3C9.85596 26.8 12.156 26.1 13.056 25.7C13.156 24.6 13.656 23.9 14.056 23.5C10.456 23.1 6.65596 21.7 6.65596 15.4C6.65596 13.6 7.25596 12.2 8.35596 11C8.25596 10.7 7.65596 9 8.55596 6.8C8.55596 6.8 9.95596 6.4 13.056 8.5C14.356 8.1 15.756 8 17.156 8C18.556 8 19.956 8.2 21.256 8.5C24.356 6.4 25.756 6.8 25.756 6.8C26.656 9 26.056 10.7 25.956 11.1C26.956 12.2 27.656 13.7 27.656 15.5C27.656 21.8 23.856 23.1 20.256 23.5C20.856 24 21.356 25 21.356 26.5C21.356 28.7 21.356 30.4 21.356 31C21.356 31.4 21.656 31.9 22.456 31.8C28.956 29.6 33.556 23.5 33.556 16.3C33.456 7.3 26.156 0 17.156 0Z" fill="white"/>
</svg>
