<svg width="33" height="36" viewBox="0 0 33 36" fill="none" xmlns="http://www.w3.org/2000/svg">
<path d="M28.3991 0.447021C30.4706 0.447021 32.1414 2.10515 32.2401 4.0564V35.447L28.296 32.1322L26.1302 30.181L23.767 28.1422L24.7542 31.3579H4.07178C2.00619 31.3579 0.329559 29.8047 0.329559 27.747V4.06369C0.329559 2.11244 2.00914 0.451396 4.07914 0.451396H28.3888L28.3991 0.447021ZM19.3854 8.73473H19.3412L19.0436 9.0264C22.0978 9.9014 23.5755 11.2679 23.5755 11.2679C21.6072 10.2937 19.8333 9.80661 18.0594 9.60973C16.7776 9.41286 15.4959 9.5164 14.413 9.60973H14.1183C13.4259 9.60973 11.9525 9.9014 9.9783 10.6816C9.29026 10.9776 8.89541 11.1716 8.89541 11.1716C8.89541 11.1716 10.3717 9.71035 13.6248 8.93015L13.4259 8.73327C13.4259 8.73327 10.9625 8.63994 8.30314 10.5854C8.30314 10.5854 5.6438 15.1704 5.6438 20.8229C5.6438 20.8229 7.11712 23.3604 11.1584 23.4566C11.1584 23.4566 11.7477 22.6793 12.3444 21.9954C10.0755 21.3129 9.19155 19.9479 9.19155 19.9479C9.19155 19.9479 9.38897 20.0441 9.68511 20.2395H9.77351C9.8177 20.2395 9.83833 20.2614 9.8619 20.2833V20.292C9.88548 20.3154 9.9061 20.3358 9.9503 20.3358C10.4365 20.5341 10.9227 20.7295 11.3205 20.9191C12.0071 21.2137 12.8896 21.5068 13.9725 21.7008C15.3426 21.8976 16.9132 21.9924 18.7018 21.7008C19.5858 21.5039 20.4698 21.3114 21.3538 20.9206C21.9283 20.6289 22.6355 20.3372 23.412 19.8458C23.412 19.8458 22.528 21.2108 20.1633 21.8933C20.6495 22.5729 21.3346 23.3516 21.3346 23.3516C25.3774 23.2641 26.9479 20.7266 27.0363 20.8345C27.0363 15.1908 24.3623 10.597 24.3623 10.597C21.9534 8.8266 19.6992 8.75952 19.3014 8.75952L19.3839 8.73036L19.3854 8.73473ZM19.6329 15.1704C20.6687 15.1704 21.504 16.0454 21.504 17.1172C21.504 18.1964 20.6642 19.0714 19.6329 19.0714C18.6016 19.0714 17.7618 18.1964 17.7618 17.126C17.7648 16.0468 18.606 15.1747 19.6329 15.1747V15.1704ZM12.9397 15.1704C13.971 15.1704 14.8049 16.0454 14.8049 17.1172C14.8049 18.1964 13.9651 19.0714 12.9338 19.0714C11.9024 19.0714 11.0627 18.1964 11.0627 17.126C11.0627 16.0468 11.9024 15.1747 12.9338 15.1747L12.9397 15.1704Z" fill="white"/>
</svg>
