<svg width="16" height="16" viewBox="0 0 16 16" fill="none" xmlns="http://www.w3.org/2000/svg">
<g clip-path="url(#clip0)">
<path d="M8.42456 0.374756C4.28784 0.374756 0.924561 3.73804 0.924561 7.87476C0.924561 12.0115 4.28784 15.3748 8.42456 15.3748C12.5613 15.3748 15.9246 12.0115 15.9246 7.87476C15.9246 3.73804 12.5613 0.374756 8.42456 0.374756ZM8.42456 14.4373C4.8064 14.4373 1.86206 11.4929 1.86206 7.87476C1.86206 4.25659 4.8064 1.31226 8.42456 1.31226C12.0427 1.31226 14.9871 4.25659 14.9871 7.87476C14.9871 11.4929 12.0427 14.4373 8.42456 14.4373Z" fill="black"/>
<path d="M8.89331 3.65601H7.95581V10.2185H8.89331V3.65601Z" fill="black"/>
<path d="M8.89331 11.156H7.95581V12.0935H8.89331V11.156Z" fill="black"/>
</g>
<defs>
<clipPath id="clip0">
<rect width="15" height="15" fill="white" transform="translate(0.924561 0.374756)"/>
</clipPath>
</defs>
</svg>
