<svg width="16" height="17" viewBox="0 0 16 17" fill="none" xmlns="http://www.w3.org/2000/svg">
<g clip-path="url(#clip0)">
<path d="M11.1129 16.5629H2.59131C1.55739 16.5629 0.716309 15.7406 0.716309 14.7299V5.7291C0.716309 4.71832 1.55739 3.89606 2.59131 3.89606H2.93184C3.21494 3.89606 3.4447 4.12067 3.4447 4.39744C3.4447 4.6742 3.21494 4.89881 2.93184 4.89881H2.59131C2.11948 4.89881 1.73792 5.27184 1.73792 5.73311V14.7339C1.73792 15.1951 2.11948 15.5682 2.59131 15.5682H11.1129C11.5847 15.5682 11.9663 15.1951 11.9663 14.7339V14.4009C11.9663 14.1242 12.1961 13.8996 12.4792 13.8996C12.7623 13.8996 12.992 14.1242 12.992 14.4009V14.7339C12.9879 15.7406 12.1509 16.5629 11.1129 16.5629Z" fill="white"/>
<path d="M13.8414 12.5599H6.68189C5.64797 12.5599 4.80688 11.7376 4.80688 10.7268V2.39591C4.80688 1.38513 5.64797 0.562866 6.68189 0.562866H13.8414C14.8753 0.562866 15.7164 1.38513 15.7164 2.39591V10.7268C15.7164 11.7416 14.8753 12.5599 13.8414 12.5599ZM6.68189 1.56161C6.21006 1.56161 5.82849 1.93464 5.82849 2.39591V10.7268C5.82849 11.1881 6.21006 11.5611 6.68189 11.5611H13.8414C14.3132 11.5611 14.6947 11.1881 14.6947 10.7268V2.39591C14.6947 1.93464 14.3132 1.56161 13.8414 1.56161H6.68189Z" fill="white"/>
</g>
<defs>
<clipPath id="clip0">
<rect width="15" height="16" fill="white" transform="translate(0.716309 0.562866)"/>
</clipPath>
</defs>
</svg>
