<svg width="50" height="29" viewBox="0 0 50 29" fill="none" xmlns="http://www.w3.org/2000/svg">
<path d="M28.3235 14.6242C28.3235 22.1508 22.1991 28.2523 14.6447 28.2523C7.09028 28.2523 0.965424 22.1495 0.965424 14.6242C0.965424 7.09902 7.08981 0.995697 14.6447 0.995697C22.1996 0.995697 28.3235 7.09764 28.3235 14.6242ZM43.3296 14.6242C43.3296 21.7089 40.2674 27.4545 36.49 27.4545C32.7125 27.4545 29.6503 21.7089 29.6503 14.6242C29.6503 7.53957 32.7121 1.79402 36.4895 1.79402C40.2669 1.79402 43.3291 7.53773 43.3291 14.6242H43.3296ZM49.4674 14.6242C49.4674 20.9704 48.3906 26.1181 47.0619 26.1181C45.7332 26.1181 44.6569 20.9718 44.6569 14.6242C44.6569 8.27673 45.7337 3.13039 47.0619 3.13039C48.3902 3.13039 49.4674 8.27627 49.4674 14.6242Z" fill="white"/>
</svg>
