<svg width="16" height="15" viewBox="0 0 16 15" fill="none" xmlns="http://www.w3.org/2000/svg">
<path d="M13.0237 -0.00109863H2.3479C1.15552 -0.00109863 0.185791 1.1064 0.185791 2.4682V11.6929C0.185791 13.0547 1.15552 14.1622 2.3479 14.1622H13.0208C14.2131 14.1622 15.1829 13.0547 15.1829 11.6929V2.4682C15.1858 1.1064 14.2161 -0.00109863 13.0237 -0.00109863ZM14.3215 8.56448H11.1487C10.4338 8.56448 9.85083 7.89864 9.85083 7.08224C9.85083 6.26583 10.4338 5.59999 11.1487 5.59999H14.3215V8.56448ZM14.3215 4.60959H11.1487C9.9563 4.60959 8.98657 5.7171 8.98657 7.07889C8.98657 8.44068 9.9563 9.54819 11.1487 9.54819H14.3215V11.6896C14.3215 12.506 13.7385 13.1718 13.0237 13.1718H2.3479C1.63306 13.1718 1.05005 12.506 1.05005 11.6896V2.4682C1.05005 1.65179 1.63306 0.985951 2.3479 0.985951H13.0208C13.7356 0.985951 14.3186 1.65179 14.3186 2.4682L14.3215 4.60959Z" fill="white"/>
</svg>
