<svg id="Layer_1" data-name="Layer 1" xmlns="http://www.w3.org/2000/svg" viewBox="0 0 200 200"><defs><style>.cls-1,.cls-2{fill:#231f20;}.cls-2{stroke:#fff;stroke-miterlimit:10;stroke-width:6.53px;}.cls-3{fill:#fff;}.cls-4{fill:#ed1c24;}</style></defs><rect class="cls-1" y="-1.35" width="200" height="201.35"/><circle class="cls-2" cx="101.27" cy="100" r="86.77"/><path class="cls-3" d="M69.25,48.73h32.23a93.41,93.41,0,0,1,14.28.8,20.88,20.88,0,0,1,8.41,3.33,20.64,20.64,0,0,1,6.19,6.74A18.24,18.24,0,0,1,132.84,69a19.09,19.09,0,0,1-11.33,17.49,21.22,21.22,0,0,1,11.33,7.32,19.43,19.43,0,0,1,4,12.16,24,24,0,0,1-2.56,10.7,21.52,21.52,0,0,1-7,8.3,23.2,23.2,0,0,1-10.92,3.83q-4.08.43-19.64.55H69.25ZM85.53,62.16V80.8H96.2q9.52,0,11.83-.27a10.71,10.71,0,0,0,6.57-2.89,8.5,8.5,0,0,0,2.4-6.3,8.84,8.84,0,0,0-2.07-6.08,9.32,9.32,0,0,0-6.13-2.83q-2.42-.27-13.92-.27Zm0,32.07v21.56H100.6q8.81,0,11.17-.5a10.1,10.1,0,0,0,5.91-3.21,9.88,9.88,0,0,0,2.29-6.85,10.53,10.53,0,0,0-1.76-6.16,10,10,0,0,0-5.09-3.69q-3.33-1.16-14.44-1.15Z"/><rect class="cls-4" x="69.25" y="138.47" width="67.55" height="13.59"/></svg>